<mxfile host="app.diagrams.net" modified="2024-04-02T17:10:53.655Z" agent="Mozilla/5.0 (Windows NT 10.0; Win64; x64) AppleWebKit/537.36 (KHTML, like Gecko) Chrome/123.0.0.0 Safari/537.36" version="24.2.1" etag="WQWpr4U7CKSHuUG3m9w_" type="github">
  <diagram name="Page-1" id="6FZwS16Xek_d0Qi0IWaV">
    <mxGraphModel>
      <root>
        <mxCell id="0" />
        <mxCell id="1" parent="0" />
      </root>
    </mxGraphModel>
  </diagram>
</mxfile>
